<svg xmlns="http://www.w3.org/2000/svg" width="1500" height="1500" viewBox="0 0 1500 1500"><path fill="#002d7b" d="M0 0h750v750H0z"/><path fill="#f6f6f6" d="M37.93 787.93h674.14v674.14H37.93z"/><path fill="#31ece6" d="M750 750h750v750H750zM229.48 212.76a7.69 7.69 0 006.64-3.84H241l-.51 1.13a11.85 11.85 0 01-1.9 3.07 12.21 12.21 0 01-9.13 4.13h-2.87zm-46.09-13.27l-3.89-2.25L198.71 164a12.2 12.2 0 0110.54-6.08h38l2 4.49h-40a7.69 7.69 0 00-6.65 3.84z"/><path d="M248.78 196h-5.2l9.15-15.7a.26.26 0 000-.28.26.26 0 00-.24-.14h-31.34a7.68 7.68 0 00-6.64 3.84l-7.1 12.28h-5.19l8.4-14.54a12.19 12.19 0 0110.53-6.08h31.34a4.76 4.76 0 014.12 7.17z" fill="#31ece6"/><path d="M240.51 143.48a11.85 11.85 0 00-1.9-3.07 12.21 12.21 0 00-9.13-4.13h-32.7a12.2 12.2 0 00-10.54 6.08l-16.35 28.32a12.19 12.19 0 000 12.17l16.35 28.32a12.2 12.2 0 0010.54 6.08h16.12a6.64 6.64 0 005.74-3.31l20.43-35.18-3.89-2.25-20.43 35.18a2.14 2.14 0 01-1.85 1.07h-16.12a7.69 7.69 0 01-6.65-3.84l-16.35-28.32a7.72 7.72 0 010-7.67l16.35-28.32a7.69 7.69 0 016.65-3.84h32.7a7.69 7.69 0 016.64 3.84H241zm-25.88 246.4v-3.33a5.69 5.69 0 004.92-2.85l2.89 1.67a9.05 9.05 0 01-7.81 4.51zm-34.17-13.17l-2.88-1.71 14.24-24.67a9.05 9.05 0 017.81-4.51h28.49v3.34h-28.49a5.72 5.72 0 00-4.93 2.84z" fill="#31ece6"/><path d="M228 375.8l-2.88-1.68 6.79-11.63a.21.21 0 000-.21.2.2 0 00-.18-.1h-23.27a5.71 5.71 0 00-4.93 2.84l-6.22 10.78-2.89-1.67 6.23-10.78a9 9 0 017.81-4.51h23.23a3.54 3.54 0 013.05 5.32z" fill="#31ece6"/><path d="M202.34 389.88h-12a9 9 0 01-7.81-4.51l-12.12-21a9 9 0 010-9l12.12-21a9 9 0 017.81-4.51h24.24a9.05 9.05 0 017.81 4.51l-2.84 1.63a5.69 5.69 0 00-4.92-2.85h-24.24a5.7 5.7 0 00-4.93 2.85l-12.12 21a5.72 5.72 0 000 5.69l12.12 21a5.7 5.7 0 004.93 2.85h12a1.59 1.59 0 001.37-.8l15.15-26.08 2.88 1.68-15.15 26.08a4.94 4.94 0 01-4.3 2.46z" fill="#31ece6"/><path d="M292.6 358.78v4.41h-16.5v14.73h-5v-34.45h25.21v4.41H276.1v10.9zm22.77-4.73v4.41h-.21a6.55 6.55 0 00-3.78-1.14c-4.67 0-6.9 3.22-6.9 9.55v11.05h-4.41v-24.28h3.73l.11 3.89h.1c1.45-2.91 4-4.41 7.68-4.41a7 7 0 013.68.93zm6.38 13.18c.62 4.52 4.26 7.27 9.75 7.27a12.69 12.69 0 009-3.33h.21v4.47a14.91 14.91 0 01-9.29 2.8c-8.56 0-14.11-5-14.11-12.66 0-7.42 5.24-12.66 12.66-12.66s12.29 4.62 12.29 11.67v2.44zm0-3.68h16.4c-.63-3.94-3.74-6.49-8.15-6.49a8.14 8.14 0 00-8.25 6.49zM352.57 346a2.91 2.91 0 11-2.91-2.9 2.79 2.79 0 012.91 2.9zm-5.09 7.63h4.41v24.28h-4.41zM382.66 376c0 7.68-4.88 12.29-13.13 12.29-4.25 0-7.88-1.19-10.12-3.21v-4.62h.21c2 2.44 5.45 3.89 9.44 3.89 5.87 0 9.19-3.06 9.19-8.61v-1.19h-.11c-1.92 2.33-4.93 3.68-8.87 3.68-7 0-12.14-5.19-12.14-12.55s5.09-12.56 12.14-12.56c4.26 0 7.58 1.66 9.39 4.41h.11l.15-3.89h3.74zm-4.26-10.32c0-5.14-3.47-8.62-8.4-8.62s-8.41 3.48-8.41 8.62 3.43 8.61 8.41 8.61 8.4-3.48 8.4-8.61zm33.72-1.87v14.11h-4.41v-13.59c0-4.57-2.49-7.27-6.59-7.27-4.51 0-7.21 3.12-7.21 8.25v12.61h-4.41V341.6h4.41v15h.09c1.71-2.28 4.56-3.53 8.14-3.53 6.2.05 9.98 4.1 9.98 10.74zm20.18 13.75a9.5 9.5 0 01-4.41.88c-5.08 0-7.93-3-7.93-8.46v-12.5h-4.47v-3.84h4.57l.67-6.59h3.64v6.59h7.83v3.84h-7.83v12.4c0 2.9 1.55 4.62 4.15 4.62a4.69 4.69 0 003.58-1.41h.2z" fill="#fff"/><path d="M464.83 377.92h-7.68v-27.6h-10.27v-6.85h28.17v6.85h-10.22zM493.88 354v6.64h-.26a6.56 6.56 0 00-3.84-1.14c-4.15 0-6 2.54-6 8v10.48H477v-24.44h5.65l.31 3.78h.04c1.35-2.85 3.73-4.3 7.26-4.3a6 6 0 013.62.98zm20.54 23.92l-.26-3.48h-.1c-1.45 2.55-4 4-7.57 4-6 0-9.5-3.89-9.5-10.48v-14.42h6.8v13.64c0 3.37 1.66 5.24 4.51 5.24 3.12 0 5-2.13 5-5.91v-13h6.8v24.38zm28.43-23.35v6.49h-.26c-1.6-1.61-4.09-2.44-7.26-2.44-2.65 0-3.94.78-3.94 2.28 0 1.09.83 1.56 4 1.77 6.49.41 9 2.69 9 7.83 0 5-3.73 7.94-10 7.94-4.05 0-7.16-.73-9.24-2.18v-6.54h.32c1.91 2.08 4.82 3.12 8.61 3.12 2.64 0 3.94-.78 3.94-2.34 0-1.3-1-1.82-4.46-2.13-6.18-.57-8.61-2.44-8.61-7.26s4-8.09 10.16-8.09a17.65 17.65 0 017.74 1.55zm21.07 23.04a11 11 0 01-4.78.83c-5.91 0-9.08-3.22-9.08-9.39v-9.76h-4v-5.75h4.25l.88-6.85h5.71v6.85h7v5.75h-7v9.5c0 2.33 1.25 3.63 3.37 3.63a4.4 4.4 0 003.43-1.4h.26zM207.45 590.32v-3a5.11 5.11 0 004.42-2.56l2.59 1.5a8.13 8.13 0 01-7.01 4.06zm-30.65-11.81l-2.59-1.51L187 554.88a8.11 8.11 0 017-4h25.55v3H194a5.1 5.1 0 00-4.42 2.56z" fill="#31ece6"/><path d="M219.41 577.7l-2.58-1.51 6.09-10.44a.2.2 0 000-.19.18.18 0 00-.16-.09h-20.85a5.14 5.14 0 00-4.42 2.55l-5.58 9.67-2.59-1.49 5.59-9.67a8.1 8.1 0 017-4h20.85a3.18 3.18 0 012.74 4.77z" fill="#31ece6"/><path d="M196.42 590.32H185.7a8.13 8.13 0 01-7-4l-10.87-18.84a8.12 8.12 0 010-8.09l10.87-18.83a8.11 8.11 0 017-4h21.75a8.11 8.11 0 017 4l-2.58 1.44a5.12 5.12 0 00-4.42-2.55H185.7a5.12 5.12 0 00-4.42 2.55l-10.87 18.84a5.1 5.1 0 000 5.1l10.87 18.83a5.11 5.11 0 004.42 2.56h10.72a1.46 1.46 0 001.24-.71l13.59-23.4 2.58 1.5-13.59 23.4a4.44 4.44 0 01-3.82 2.2z" fill="#31ece6"/><path d="M259.11 552.24v2.86H248.4v9.57h-3.23V542.3h16.37v2.87H248.4v7.07zm14.79-3.07V552h-.13a4.28 4.28 0 00-2.46-.74c-3 0-4.48 2.09-4.48 6.2v7.17H264v-15.72h2.43l.07 2.52h.06a5.13 5.13 0 015-2.86 4.6 4.6 0 012.34.6zm4.1 8.56c.41 2.93 2.77 4.72 6.34 4.72a8.23 8.23 0 005.83-2.16h.13v2.9a9.62 9.62 0 01-6 1.82c-5.56 0-9.16-3.27-9.16-8.22a7.89 7.89 0 018.22-8.22c4.85 0 8 3 8 7.58v1.58zm0-2.39h10.65c-.4-2.56-2.42-4.21-5.29-4.21a5.29 5.29 0 00-5.36 4.21zM298.06 544a1.89 1.89 0 11-1.89-1.88 1.81 1.81 0 011.89 1.88zm-3.31 5h2.87v15.76h-2.87zm22.84 14.43c0 5-3.16 8-8.52 8a9.81 9.81 0 01-6.57-2.09v-3h.14a7.77 7.77 0 006.13 2.53c3.8 0 6-2 6-5.59v-.78h-.07a7.12 7.12 0 01-5.76 2.4c-4.58 0-7.88-3.37-7.88-8.16s3.3-8.15 7.88-8.15a7 7 0 016.1 2.86h.07l.1-2.52h2.42zm-2.76-6.71a5.46 5.46 0 10-5.46 5.59 5.27 5.27 0 005.46-5.59zm21.9-1.21v9.16h-2.86v-8.82c0-3-1.62-4.72-4.28-4.72-2.93 0-4.69 2-4.69 5.36v8.18H322v-23.58h2.86v9.77h.14a6.34 6.34 0 015.29-2.29c3.98 0 6.44 2.63 6.44 6.94zm13.1 8.93a6.14 6.14 0 01-2.83.56c-3.3 0-5.16-2-5.16-5.49v-8.11h-2.89v-2.49h3l.44-4.28h2.36v4.28h5.09v2.49h-5.09v8.05c0 1.89 1 3 2.69 3a3.07 3.07 0 002.33-.91h.13z" fill="#fff"/><path d="M251.74 585h-3.66v-13.16h-4.9v-3.27h13.44v3.27h-4.88zm13.87-11.43v3.17h-.13a3.17 3.17 0 00-1.83-.54c-2 0-2.87 1.21-2.87 3.81v5h-3.24v-11.63h2.7l.15 1.8a3.51 3.51 0 013.47-2 2.92 2.92 0 011.75.39zm9.8 11.43l-.12-1.66h-.05a3.92 3.92 0 01-3.62 1.91c-2.84 0-4.53-1.86-4.53-5v-6.88h3.25v6.51c0 1.6.79 2.49 2.15 2.49s2.38-1 2.38-2.82v-6.18h3.24V585zM289 573.87V577h-.13a4.77 4.77 0 00-3.46-1.16c-1.26 0-1.88.37-1.88 1.09 0 .52.39.74 1.93.84 3.09.2 4.3 1.29 4.3 3.74s-1.78 3.79-4.77 3.79a7.76 7.76 0 01-4.41-1v-3.2h.15a5.36 5.36 0 004.11 1.48c1.26 0 1.88-.37 1.88-1.11s-.5-.87-2.13-1c-2.94-.27-4.11-1.16-4.11-3.46s1.91-3.86 4.85-3.86a8.43 8.43 0 013.67.72zm10 10.99a5.27 5.27 0 01-2.28.4c-2.82 0-4.33-1.54-4.33-4.48v-4.66h-1.93v-2.74h2l.42-3.27h2.72v3.27h3.4v2.74h-3.34v4.53a1.52 1.52 0 001.61 1.73 2.08 2.08 0 001.63-.66h.1zm176.49 5.46v-3a5.1 5.1 0 004.42-2.56l2.59 1.5a8.11 8.11 0 01-7.01 4.06zm-30.65-11.81l-2.59-1.51L455 554.88a8.13 8.13 0 017-4h25.6v3H462a5.11 5.11 0 00-4.42 2.56z" fill="#31ece6"/><path d="M487.46 577.7l-2.59-1.51 6.13-10.44a.16.16 0 000-.19.17.17 0 00-.16-.09H470a5.12 5.12 0 00-4.42 2.55l-5.58 9.67-2.59-1.49 5.58-9.67a8.11 8.11 0 017-4h20.81a3.18 3.18 0 012.74 4.77z" fill="#31ece6"/><path d="M464.47 590.32h-10.72a8.11 8.11 0 01-7-4l-10.88-18.84a8.12 8.12 0 010-8.09l10.88-18.83a8.1 8.1 0 017-4h21.74a8.1 8.1 0 017 4l-2.58 1.44a5.11 5.11 0 00-4.42-2.55h-21.74a5.11 5.11 0 00-4.42 2.55l-10.88 18.84a5.1 5.1 0 000 5.1l10.88 18.83a5.1 5.1 0 004.42 2.56h10.72a1.44 1.44 0 001.23-.71l13.59-23.4 2.58 1.5-13.58 23.4a4.44 4.44 0 01-3.82 2.2z" fill="#31ece6"/><path d="M523 550.33v1.29a5.67 5.67 0 00-4.27-1.53c-2.14 0-3.63 1.14-3.63 2.76 0 1.45.89 2.11 3.77 2.39 3.56.33 4.83 1.35 4.83 3.69s-1.87 3.75-4.87 3.75a7.76 7.76 0 01-5-1.49v-1.29h.06a6.75 6.75 0 005 1.79c2.35 0 3.75-1 3.75-2.76s-.93-2.3-4-2.62c-3.46-.31-4.64-1.31-4.64-3.44s1.88-3.77 4.72-3.77a6.75 6.75 0 014.28 1.23zm11.32 6.85v5.3h-1v-5.2c0-2.08-1.15-3.33-3.11-3.33s-3.38 1.46-3.38 3.83v4.7h-1v-13.89h1v6.33a3.79 3.79 0 013.52-1.89c2.46-.03 3.97 1.59 3.97 4.15zm3.79-6.89a.74.74 0 11-.74-.75.74.74 0 01.74.75zm-1.23 2.94h1v9.25h-1zm13.48 4.63a4.6 4.6 0 01-4.73 4.82 4.34 4.34 0 01-3.89-1.93v5.5h-1v-13h.87v1.91a4.36 4.36 0 014-2.11 4.61 4.61 0 014.75 4.81zm-1 0a3.84 3.84 0 10-3.83 3.91 3.7 3.7 0 003.79-3.91zm12.85 0a4.6 4.6 0 01-4.73 4.82 4.35 4.35 0 01-3.89-1.93v5.5h-1v-13h.87v1.91a4.37 4.37 0 014-2.11 4.61 4.61 0 014.75 4.81zm-1 0a3.84 3.84 0 10-3.83 3.91 3.7 3.7 0 003.79-3.91zm4.41-7.57a.74.74 0 11-.73-.75.74.74 0 01.73.75zm-1.23 2.94h1v9.25h-1zm12.33 3.95v5.3h-1v-5.2c0-2.08-1.15-3.33-3.11-3.33s-3.38 1.46-3.38 3.83v4.7h-1v-9.25h.87v1.91a3.81 3.81 0 013.64-2.11c2.47-.03 3.98 1.59 3.98 4.15zm11.61 4.57c0 3-1.79 4.7-4.88 4.7a5.44 5.44 0 01-4-1.39V564a4.78 4.78 0 003.82 1.59c2.52 0 4-1.37 4-3.83v-1a4.36 4.36 0 01-3.89 2 4.81 4.81 0 010-9.61 4.36 4.36 0 014 2.11v-1.91h.89zm-1-3.91a3.86 3.86 0 10-3.88 3.89 3.71 3.71 0 003.93-3.89zm-64.94 23.33a6 6 0 01-4.21 1.55c-2.62 0-4.21-1.31-4.21-3.5 0-1.65.85-2.8 2.78-3.75l-.24-.24a4.19 4.19 0 01-1.55-3.08c0-1.84 1.35-3 3.48-3s3.43 1.09 3.43 2.82c0 1.56-.87 2.6-3.55 3.75l4 4.07a6.34 6.34 0 00.95-3.58v-.81h1v.79a6.74 6.74 0 01-1.27 4.27l2.05 2.07h-1.35zm-.66-.66l-4.33-4.37c-1.7.86-2.42 1.73-2.42 3 0 1.71 1.17 2.68 3.26 2.68a4.85 4.85 0 003.49-1.31zm-4.09-5.51c2.56-1 3.3-1.82 3.3-3s-1-2-2.44-2-2.53.83-2.53 2.1c0 .94.34 1.57 1.39 2.6zm13.94 7.52v-13.18h1.09v12.18h8.12v1zm20.3-4.63a4.87 4.87 0 11-4.88-4.82 4.65 4.65 0 014.88 4.82zm-8.71 0A3.84 3.84 0 10547 574a3.72 3.72 0 00-3.83 3.89zm19.95 3.89c0 3-1.79 4.71-4.88 4.71a5.48 5.48 0 01-4-1.39V584h.06a4.73 4.73 0 003.81 1.58c2.52 0 4-1.37 4-3.83v-1a4.37 4.37 0 01-3.89 2 4.81 4.81 0 010-9.61 4.35 4.35 0 014 2.1v-1.9h.89zm-1-3.91a3.86 3.86 0 10-3.87 3.89 3.72 3.72 0 003.92-3.89zm5.05-7.54a.74.74 0 01-1.47 0 .74.74 0 111.47 0zm-1.23 2.94h1v9.25h-1zm9.74.59V575h-.06a4 4 0 00-3-1c-1.41 0-2.44.79-2.44 1.89 0 .93.59 1.35 2.52 1.45 2.56.14 3.47.89 3.47 2.62s-1.37 2.78-3.51 2.78a5.29 5.29 0 01-3.54-1.06v-1.17h.06a4.38 4.38 0 003.46 1.31c1.55 0 2.56-.73 2.56-1.86s-.64-1.49-2.68-1.61c-2.48-.14-3.34-.87-3.34-2.44s1.39-2.82 3.42-2.82a5.38 5.38 0 013.08.77zm7.32 8.5a3.2 3.2 0 01-1.57.36c-1.73 0-2.72-1.1-2.72-3v-5.6h-1.83v-.89h1.85l.2-2.47h.79v2.47H583v.89h-3.24v5.58c0 1.29.68 2.06 1.83 2.06a1.89 1.89 0 001.39-.51h.02zm3.4-12.03a.72.72 0 01-.73.73.73.73 0 01-.74-.73.74.74 0 01.74-.76.73.73 0 01.73.76zm-1.23 2.94h1v9.25h-1zm11.28.87v1.15h-.06a3.91 3.91 0 100 5.2h.06v1.17a4.5 4.5 0 01-3.14 1.06 4.83 4.83 0 110-9.65 4.41 4.41 0 013.14 1.07zm8.32-.28V575h-.06a4.07 4.07 0 00-3-1c-1.41 0-2.44.79-2.44 1.89 0 .93.59 1.35 2.52 1.45 2.56.14 3.47.89 3.47 2.62s-1.37 2.78-3.51 2.78a5.29 5.29 0 01-3.54-1.06v-1.17h.06a4.38 4.38 0 003.46 1.31c1.55 0 2.56-.73 2.56-1.86s-.64-1.49-2.68-1.61c-2.48-.14-3.34-.87-3.34-2.44s1.39-2.82 3.42-2.82a5.44 5.44 0 013.08.77zM259.32 140.61h-.62v-3.77h-1.43v-.56h3.47v.56h-1.42zm6.55 0v-3.68l-1.66 3.68h-.55L262 137v3.64h-.6v-4.33h.94l1.58 3.52 1.59-3.52h1v4.33zM341 199.49l-3.89-2.25L356.33 164a12.22 12.22 0 0110.54-6.08h38l2 4.49h-40a7.71 7.71 0 00-6.65 3.84z" fill="#fff"/><path d="M406.4 196h-5.2l9.15-15.7a.26.26 0 000-.28.26.26 0 00-.24-.14h-31.34a7.68 7.68 0 00-6.64 3.84L365 196h-5.19l8.4-14.54a12.19 12.19 0 0110.53-6.08h31.34a4.76 4.76 0 014.12 7.17z" fill="#fff"/><path d="M398.13 143.48a11.85 11.85 0 00-1.9-3.07 12.21 12.21 0 00-9.13-4.13h-32.7a12.22 12.22 0 00-10.54 6.08l-16.35 28.32a12.19 12.19 0 000 12.17l16.35 28.32a12.22 12.22 0 0010.54 6.08h16.12a6.64 6.64 0 005.74-3.31l20.43-35.18-3.89-2.25-20.43 35.18a2.14 2.14 0 01-1.85 1.07H354.4a7.69 7.69 0 01-6.65-3.84L331.4 180.6a7.72 7.72 0 010-7.67l16.35-28.32a7.69 7.69 0 016.65-3.84h32.7a7.68 7.68 0 016.64 3.84h4.9zm18.81-2.87h-.62v-3.77h-1.43v-.56h3.47v.56h-1.42zm6.55 0v-3.68l-1.65 3.68h-.56l-1.64-3.61v3.64H419v-4.33h1l1.57 3.52 1.59-3.52h1v4.33zm114.34 72.15a7.69 7.69 0 006.65-3.84h4.89l-.5 1.13a11.86 11.86 0 01-11 7.2H535z" fill="#fff"/><path d="M491.75 199.49l-3.89-2.25L507.07 164a12.2 12.2 0 0110.54-6.08h38l2 4.49h-40a7.69 7.69 0 00-6.65 3.84z" fill="#61ef81"/><path d="M557.13 196h-5.19l9.15-15.7a.26.26 0 000-.28.26.26 0 00-.24-.14h-31.34a7.68 7.68 0 00-6.64 3.84l-7.1 12.28h-5.19l8.42-14.53a12.22 12.22 0 0110.54-6.08h31.34a4.76 4.76 0 014.12 7.17z" fill="#61ef81"/><path d="M548.87 143.48a11.86 11.86 0 00-11-7.2h-32.73a12.2 12.2 0 00-10.54 6.08l-16.35 28.32a12.19 12.19 0 000 12.17l16.35 28.32a12.2 12.2 0 0010.54 6.08h16.12a6.64 6.64 0 005.74-3.31l20.43-35.18-3.89-2.25-20.43 35.18a2.14 2.14 0 01-1.85 1.07h-16.13a7.68 7.68 0 01-6.64-3.84l-16.35-28.32a7.72 7.72 0 010-7.67l16.35-28.32a7.68 7.68 0 016.64-3.84h32.7a7.69 7.69 0 016.65 3.84h4.89z" fill="#61ef81"/><path d="M567.68 140.61h-.63v-3.77h-1.42v-.56h3.47v.56h-1.42zm6.55 0v-3.68l-1.66 3.68H572l-1.62-3.61v3.64h-.6v-4.33h.94l1.58 3.52 1.59-3.52h1v4.33z" fill="#fff"/><path d="M229.48 974.45a7.7 7.7 0 006.64-3.83H241l-.51 1.13a12 12 0 01-1.9 3.07 12.21 12.21 0 01-9.13 4.13h-2.87zm-46.09-13.27l-3.89-2.24 19.21-33.28a12.2 12.2 0 0110.54-6.08h38l2 4.49h-40a7.69 7.69 0 00-6.65 3.84z" fill="#231f20"/><path d="M248.78 957.71h-5.2l9.15-15.7a.26.26 0 000-.28.26.26 0 00-.24-.14h-31.34a7.69 7.69 0 00-6.64 3.83l-7.1 12.3h-5.19l8.4-14.54a12.19 12.19 0 0110.53-6.08h31.34a4.76 4.76 0 014.12 7.17z" fill="#231f20"/><path d="M240.51 905.17a11.79 11.79 0 00-1.9-3.06 12.21 12.21 0 00-9.13-4.13h-32.7a12.2 12.2 0 00-10.54 6.08l-16.35 28.32a12.17 12.17 0 000 12.16l16.35 28.32a12.19 12.19 0 0010.54 6.14h16.12a6.64 6.64 0 005.74-3.31l20.43-35.18-3.89-2.26-20.43 35.19a2.13 2.13 0 01-1.85 1.06h-16.12a7.68 7.68 0 01-6.65-3.83l-16.35-28.37a7.72 7.72 0 010-7.67l16.35-28.32a7.67 7.67 0 016.65-3.84h32.7a7.69 7.69 0 016.64 3.84H241z" fill="#231f20"/><path d="M214.63 1151.57v-3.33a5.7 5.7 0 004.92-2.84l2.89 1.66a9 9 0 01-7.81 4.51z" fill="#d1d3d4"/><path d="M180.46 1138.41l-2.88-1.67 14.24-24.67a9.05 9.05 0 017.81-4.51h28.49v3.33h-28.49a5.71 5.71 0 00-4.93 2.85z" fill="#231f20"/><path d="M228 1137.5l-2.88-1.68 6.79-11.64a.21.21 0 00-.18-.31h-23.27a5.7 5.7 0 00-4.93 2.85l-6.22 10.77-2.89-1.66 6.23-10.78a9 9 0 017.81-4.51h23.23a3.54 3.54 0 013.05 5.32z" fill="#231f20"/><path d="M202.34 1151.57h-12a9 9 0 01-7.81-4.51l-12.12-21a9 9 0 010-9l12.12-21a9 9 0 017.81-4.51h24.24a9.05 9.05 0 017.81 4.51l-2.89 1.66a5.7 5.7 0 00-4.92-2.84h-24.19a5.71 5.71 0 00-4.93 2.84l-12.12 21a5.72 5.72 0 000 5.69l12.12 21a5.71 5.71 0 004.93 2.84h12a1.58 1.58 0 001.37-.79l15.15-26.08 2.88 1.67-15.15 26.08a4.92 4.92 0 01-4.3 2.44z" fill="#231f20"/><path d="M292.6 1120.47v4.41h-16.5v14.74h-5v-34.45h25.21v4.41H276.1v10.89zm22.77-4.72v4.41h-.21a6.48 6.48 0 00-3.78-1.14c-4.67 0-6.9 3.22-6.9 9.55v11h-4.41v-24.28h3.73l.11 3.89h.1c1.45-2.91 4-4.41 7.68-4.41a6.94 6.94 0 013.68.98zm6.38 13.18c.62 4.51 4.26 7.26 9.75 7.26a12.68 12.68 0 009-3.32h.21v4.46a14.85 14.85 0 01-9.29 2.8c-8.56 0-14.11-5-14.11-12.65 0-7.42 5.24-12.66 12.66-12.66s12.29 4.61 12.29 11.67v2.44zm0-3.68h16.4c-.63-4-3.74-6.49-8.15-6.49a8.13 8.13 0 00-8.25 6.49zm30.82-17.54a2.91 2.91 0 11-2.91-2.91 2.78 2.78 0 012.91 2.91zm-5.09 7.63h4.41v24.28h-4.41zm35.18 22.36c0 7.67-4.88 12.29-13.13 12.29-4.25 0-7.88-1.19-10.12-3.21v-4.62h.21c2 2.44 5.45 3.89 9.44 3.89 5.87 0 9.19-3.06 9.19-8.61v-1.2h-.11c-1.92 2.34-4.93 3.69-8.87 3.69-7 0-12.14-5.19-12.14-12.56s5.09-12.55 12.14-12.55c4.26 0 7.58 1.66 9.39 4.41h.11l.15-3.89h3.74zm-4.26-10.33c0-5.13-3.47-8.61-8.4-8.61s-8.41 3.48-8.41 8.61S365 1136 370 1136s8.4-3.49 8.4-8.63zm33.72-1.87v14.12h-4.41V1126c0-4.56-2.49-7.26-6.59-7.26-4.51 0-7.21 3.11-7.21 8.25v12.61h-4.41v-36.3h4.41v15h.09c1.71-2.29 4.56-3.53 8.14-3.53 6.2.05 9.98 4.09 9.98 10.73zm20.18 13.75a9.5 9.5 0 01-4.41.88c-5.08 0-7.93-3-7.93-8.45v-12.5h-4.47v-3.84h4.57l.67-6.59h3.64v6.59h7.83v3.84h-7.83v12.39c0 2.91 1.55 4.62 4.15 4.62a4.68 4.68 0 003.58-1.4h.2z" fill="#d1d3d4"/><path d="M464.83 1139.62h-7.68V1112h-10.27v-6.85h28.17v6.85h-10.22zm29.05-23.97v6.64h-.26a6.56 6.56 0 00-3.84-1.14c-4.15 0-6 2.54-6 8v10.48H477v-24.39h5.65l.31 3.79h.04c1.35-2.85 3.73-4.31 7.26-4.31a6 6 0 013.62.93zm20.54 23.97l-.26-3.48h-.1c-1.45 2.54-4 4-7.57 4-6 0-9.5-3.89-9.5-10.47v-14.43h6.8v13.65c0 3.37 1.66 5.24 4.51 5.24 3.12 0 5-2.13 5-5.92v-13h6.8v24.39zm28.43-23.35v6.49h-.26c-1.6-1.61-4.09-2.44-7.26-2.44-2.65 0-3.94.77-3.94 2.28 0 1.09.83 1.56 4 1.76 6.49.42 9 2.7 9 7.84 0 5-3.73 7.93-10 7.93-4.05 0-7.16-.72-9.24-2.17v-6.54h.32c1.91 2.07 4.82 3.11 8.61 3.11 2.64 0 3.94-.78 3.94-2.33 0-1.3-1-1.82-4.46-2.13-6.18-.57-8.61-2.44-8.61-7.26s4-8.1 10.16-8.1a17.51 17.51 0 017.74 1.56zm21.07 23.03a10.85 10.85 0 01-4.78.83c-5.91 0-9.08-3.21-9.08-9.39V1121h-4v-5.76h4.25l.88-6.85h5.71v6.85h7v5.76h-7v9.5c0 2.33 1.25 3.63 3.37 3.63a4.4 4.4 0 003.43-1.4h.26z" fill="#231f20"/><path d="M207.45 1352v-3a5.1 5.1 0 004.42-2.55l2.59 1.5a8.13 8.13 0 01-7.01 4.05z" fill="#d1d3d4"/><path d="M176.8 1340.21l-2.59-1.5 12.79-22.13a8.1 8.1 0 017-4h25.55v3H194a5.11 5.11 0 00-4.42 2.55z" fill="#231f20"/><path d="M219.41 1339.39l-2.58-1.5 6.09-10.44a.2.2 0 000-.19.18.18 0 00-.16-.09h-20.85a5.14 5.14 0 00-4.42 2.55l-5.58 9.67-2.59-1.5 5.59-9.67a8.11 8.11 0 017-4h20.85a3.17 3.17 0 012.74 4.77z" fill="#231f20"/><path d="M196.42 1352H185.7a8.13 8.13 0 01-7-4l-10.87-18.84a8.12 8.12 0 010-8.09l10.87-18.84a8.13 8.13 0 017-4h21.75a8.13 8.13 0 017 4l-2.59 1.5a5.1 5.1 0 00-4.42-2.55H185.7a5.1 5.1 0 00-4.42 2.55l-10.87 18.83a5.12 5.12 0 000 5.11l10.87 18.83a5.1 5.1 0 004.42 2.55h10.72a1.44 1.44 0 001.24-.71l13.59-23.4 2.58 1.5-13.59 23.4a4.43 4.43 0 01-3.82 2.16z" fill="#231f20"/><path d="M259.11 1313.94v2.86H248.4v9.57h-3.23V1304h16.37v2.86H248.4v7.08zm14.79-3.07v2.87h-.13a4.22 4.22 0 00-2.46-.75c-3 0-4.48 2.09-4.48 6.2v7.18H264v-15.77h2.43l.07 2.53h.06a5.12 5.12 0 015-2.86 4.5 4.5 0 012.34.6zm4.1 8.56c.41 2.93 2.77 4.72 6.34 4.72a8.23 8.23 0 005.83-2.16h.13v2.9a9.68 9.68 0 01-6 1.82c-5.56 0-9.16-3.27-9.16-8.22a7.89 7.89 0 018.22-8.22c4.85 0 8 3 8 7.58v1.58zm0-2.39h10.65c-.4-2.56-2.42-4.21-5.29-4.21A5.29 5.29 0 00278 1317zm20.06-11.39a1.89 1.89 0 11-1.89-1.89 1.81 1.81 0 011.89 1.89zm-3.31 4.95h2.87v15.77h-2.87zm22.84 14.52c0 5-3.16 8-8.52 8a9.86 9.86 0 01-6.57-2.09v-3h.14a7.8 7.8 0 006.13 2.53c3.8 0 6-2 6-5.6v-.77h-.07a7.11 7.11 0 01-5.76 2.39c-4.58 0-7.88-3.37-7.88-8.15s3.3-8.15 7.88-8.15a7 7 0 016.1 2.86h.07l.1-2.53h2.42zm-2.76-6.7a5.46 5.46 0 10-5.46 5.59 5.27 5.27 0 005.46-5.59zm21.9-1.21v9.16h-2.86v-8.83c0-3-1.62-4.71-4.28-4.71-2.93 0-4.69 2-4.69 5.35v8.19H322v-23.58h2.86v9.77h.14a6.32 6.32 0 015.29-2.29c3.98 0 6.44 2.62 6.44 6.94zm13.1 8.92a6.13 6.13 0 01-2.86.58c-3.3 0-5.16-2-5.16-5.49v-8.12h-2.89v-2.5h3l.44-4.28h2.36v4.28h5.09v2.5h-5.09v8.05c0 1.88 1 3 2.69 3a3.07 3.07 0 002.33-.91h.13z" fill="#d1d3d4"/><path d="M251.74 1346.71h-3.66v-13.17h-4.9v-3.27h13.44v3.27h-4.88zm13.87-11.44v3.17h-.13a3.1 3.1 0 00-1.83-.55c-2 0-2.87 1.22-2.87 3.82v5h-3.24v-11.64h2.7l.15 1.81a3.51 3.51 0 013.47-2.05 2.92 2.92 0 011.75.44zm9.8 11.44l-.12-1.66h-.05a3.91 3.91 0 01-3.62 1.9c-2.84 0-4.53-1.85-4.53-5v-6.88h3.25v6.51c0 1.61.79 2.5 2.15 2.5s2.38-1 2.38-2.82v-6.19h3.24v11.64zm13.59-11.14v3.09h-.13a4.73 4.73 0 00-3.46-1.16c-1.26 0-1.88.37-1.88 1.09 0 .52.39.74 1.93.84 3.09.2 4.3 1.29 4.3 3.74S288 1347 285 1347a7.68 7.68 0 01-4.41-1v-3.12h.15a5.36 5.36 0 004.11 1.49c1.26 0 1.88-.37 1.88-1.11s-.5-.87-2.13-1c-2.94-.27-4.11-1.16-4.11-3.46s1.91-3.86 4.85-3.86a8.43 8.43 0 013.66.63zm10 10.99a5.28 5.28 0 01-2.28.39c-2.82 0-4.33-1.53-4.33-4.48v-4.65h-1.93v-2.75h2l.42-3.26h2.72v3.26h3.4v2.75h-3.34v4.53a1.52 1.52 0 001.61 1.73 2.09 2.09 0 001.63-.67h.1zm176.49 5.44v-3a5.09 5.09 0 004.42-2.55l2.59 1.5a8.11 8.11 0 01-7.01 4.05z" fill="#231f20"/><path d="M444.84 1340.21l-2.59-1.5 12.75-22.13a8.11 8.11 0 017-4h25.6v3H462a5.12 5.12 0 00-4.42 2.55z" fill="#d1d3d4"/><path d="M487.46 1339.39l-2.59-1.5 6.09-10.44a.16.16 0 000-.19.17.17 0 00-.16-.09H470a5.12 5.12 0 00-4.42 2.55l-5.58 9.67-2.59-1.5 5.58-9.67a8.13 8.13 0 017-4h20.81a3.17 3.17 0 012.74 4.77z" fill="#d1d3d4"/><path d="M464.47 1352h-10.72a8.11 8.11 0 01-7-4l-10.88-18.84a8.12 8.12 0 010-8.09l10.88-18.84a8.11 8.11 0 017-4h21.74a8.11 8.11 0 017 4l-2.59 1.5a5.09 5.09 0 00-4.42-2.55h-21.73a5.09 5.09 0 00-4.42 2.55l-10.88 18.83a5.12 5.12 0 000 5.11l10.88 18.83a5.09 5.09 0 004.42 2.55h10.72a1.42 1.42 0 001.23-.71l13.59-23.4 2.58 1.5-13.58 23.4a4.43 4.43 0 01-3.82 2.16z" fill="#d1d3d4"/><path d="M523 1312v1.29a5.67 5.67 0 00-4.27-1.53c-2.14 0-3.63 1.13-3.63 2.76 0 1.45.89 2.11 3.77 2.38 3.56.34 4.83 1.35 4.83 3.7s-1.87 3.75-4.87 3.75a7.76 7.76 0 01-5-1.49v-1.29h.06a6.75 6.75 0 005 1.79c2.35 0 3.75-1 3.75-2.76s-.93-2.31-4-2.62c-3.41-.36-4.62-1.28-4.62-3.44s1.88-3.77 4.72-3.77A6.75 6.75 0 01523 1312zm11.32 6.88v5.3h-1V1319c0-2.09-1.15-3.34-3.11-3.34s-3.38 1.47-3.38 3.83v4.71h-1v-13.9h1v6.34a3.77 3.77 0 013.52-1.89c2.46-.02 3.97 1.57 3.97 4.13zm3.79-6.88a.74.74 0 11-.74-.75.73.73 0 01.74.75zm-1.23 2.94h1v9.25h-1zm13.48 4.61a4.61 4.61 0 01-4.73 4.83 4.36 4.36 0 01-3.89-1.93v5.5h-1v-13h.87v1.9a4.36 4.36 0 014-2.1 4.6 4.6 0 014.75 4.8zm-1 0a3.84 3.84 0 10-3.83 3.91 3.71 3.71 0 003.79-3.91zm12.85 0a4.61 4.61 0 01-4.73 4.83 4.37 4.37 0 01-3.89-1.93v5.5h-1v-13h.87v1.9a4.37 4.37 0 014-2.1 4.6 4.6 0 014.75 4.8zm-1 0a3.84 3.84 0 10-3.83 3.91 3.71 3.71 0 003.79-3.91zm4.41-7.55a.74.74 0 11-.73-.75.73.73 0 01.73.75zm-1.23 2.94h1v9.25h-1zm12.33 3.94v5.3h-1V1319c0-2.09-1.15-3.34-3.11-3.34s-3.38 1.47-3.38 3.83v4.71h-1v-9.25h.87v1.9a3.8 3.8 0 013.64-2.1c2.47-.02 3.98 1.57 3.98 4.13zm11.61 4.56c0 3-1.79 4.71-4.88 4.71a5.48 5.48 0 01-4-1.39v-1.11a4.78 4.78 0 003.82 1.59c2.52 0 4-1.37 4-3.84v-1a4.37 4.37 0 01-3.89 2 4.81 4.81 0 010-9.61 4.35 4.35 0 014 2.1v-1.9h.89zm-1-3.91a3.86 3.86 0 10-3.88 3.89 3.72 3.72 0 003.93-3.89zm-64.94 23.33a5.92 5.92 0 01-4.21 1.55c-2.62 0-4.21-1.31-4.21-3.49 0-1.65.85-2.8 2.78-3.75l-.24-.24a4.2 4.2 0 01-1.55-3.08c0-1.84 1.35-3 3.48-3s3.43 1.1 3.43 2.82c0 1.57-.87 2.6-3.55 3.76l4 4.06a6.28 6.28 0 00.95-3.57v-.81h1v.79a6.74 6.74 0 01-1.27 4.27l2.05 2.06h-1.35zm-.66-.65l-4.33-4.37c-1.7.86-2.42 1.73-2.42 3 0 1.71 1.17 2.68 3.26 2.68a4.9 4.9 0 003.49-1.31zm-4.09-5.48c2.56-1 3.3-1.83 3.3-3s-1-2-2.44-2-2.53.83-2.53 2.1a3.4 3.4 0 001.39 2.6zm13.94 7.48V1331h1.09v12.19h8.12v1zm20.3-4.62a4.87 4.87 0 11-4.88-4.83 4.65 4.65 0 014.88 4.83zm-8.71 0a3.84 3.84 0 103.83-3.91 3.72 3.72 0 00-3.83 3.91zm19.95 3.89c0 3-1.79 4.7-4.88 4.7a5.44 5.44 0 01-4-1.39v-1.11h.06a4.71 4.71 0 003.81 1.59c2.52 0 4-1.37 4-3.83v-1a4.36 4.36 0 01-3.89 2 4.81 4.81 0 010-9.61 4.36 4.36 0 014 2.11v-1.91h.89zm-1-3.91a3.86 3.86 0 10-3.87 3.89 3.72 3.72 0 003.92-3.89zm5.05-7.57a.74.74 0 11-.74-.76.74.74 0 01.74.76zm-1.23 2.93h1v9.25h-1zm9.74.63v1.11h-.06a4 4 0 00-3-1c-1.41 0-2.44.79-2.44 1.88s.59 1.35 2.52 1.45c2.56.14 3.47.9 3.47 2.62s-1.37 2.78-3.51 2.78a5.29 5.29 0 01-3.54-1.05v-1.17h.06a4.42 4.42 0 003.46 1.31c1.55 0 2.56-.74 2.56-1.87s-.64-1.49-2.68-1.6c-2.48-.14-3.34-.88-3.34-2.45s1.39-2.82 3.42-2.82a5.3 5.3 0 013.08.81zm7.32 8.5a3.32 3.32 0 01-1.57.35c-1.73 0-2.72-1.09-2.72-3v-5.59h-1.83v-.9h1.85l.2-2.46h.79v2.54H583v.9h-3.24v5.57c0 1.3.68 2.07 1.83 2.07a1.86 1.86 0 001.41-.54zm3.4-12.06a.73.73 0 01-.73.73.75.75 0 11.73-.73zm-1.23 2.93h1v9.25h-1zm11.28.91v1.16h-.06a4 4 0 00-7 2.6 4 4 0 007 2.6h.06v1.17a4.5 4.5 0 01-3.14 1.05 4.83 4.83 0 110-9.65 4.42 4.42 0 013.14 1.07zm8.32-.28v1.11h-.06a4.07 4.07 0 00-3-1c-1.41 0-2.44.79-2.44 1.88s.59 1.35 2.52 1.45c2.56.14 3.47.9 3.47 2.62s-1.37 2.78-3.51 2.78a5.29 5.29 0 01-3.54-1.05v-1.17h.06a4.42 4.42 0 003.46 1.31c1.55 0 2.56-.74 2.56-1.87s-.64-1.49-2.68-1.6c-2.48-.14-3.34-.88-3.34-2.45s1.39-2.82 3.42-2.82a5.36 5.36 0 013.08.81z" fill="#bcbec0"/><path d="M259.32 902.3h-.62v-3.77h-1.43V898h3.47v.55h-1.42zm6.55 0v-3.67l-1.66 3.67h-.55l-1.66-3.64v3.64h-.6V898h.94l1.58 3.52 1.59-3.52h1v4.32z" fill="#231f20"/><path d="M341 961.18l-3.89-2.24 19.21-33.28a12.22 12.22 0 0110.54-6.08h38l2 4.49h-40a7.71 7.71 0 00-6.65 3.84z" fill="#58595b"/><path d="M406.4 957.71h-5.2l9.15-15.7a.26.26 0 000-.28.26.26 0 00-.24-.14h-31.34a7.69 7.69 0 00-6.64 3.83l-7.1 12.3h-5.19l8.4-14.54a12.19 12.19 0 0110.53-6.08h31.34a4.76 4.76 0 014.12 7.17z" fill="#58595b"/><path d="M398.13 905.17a11.79 11.79 0 00-1.9-3.06 12.21 12.21 0 00-9.13-4.11h-32.7a12.22 12.22 0 00-10.54 6.08l-16.35 28.32a12.17 12.17 0 000 12.16l16.35 28.32A12.2 12.2 0 00354.4 979h16.12a6.64 6.64 0 005.74-3.31l20.43-35.18-3.89-2.26-20.43 35.19a2.13 2.13 0 01-1.85 1.06H354.4a7.68 7.68 0 01-6.65-3.83L331.4 942.3a7.72 7.72 0 010-7.67l16.35-28.32a7.67 7.67 0 016.65-3.84h32.7a7.68 7.68 0 016.64 3.84h4.9z" fill="#58595b"/><path d="M1238.92 1121.41a12.25 12.25 0 00-10.75-6.22h-81.39a31.69 31.69 0 00-27.36 15.79l-21.8 37.76h13.47l18.43-31.92a20 20 0 0117.26-10h31.35l-48 82.61a5.58 5.58 0 01-4.82 2.77h-41.87a19.92 19.92 0 01-17.25-10l-15.83-27.42 48.21-83.52a20 20 0 0117.26-10h104l-5.14-11.67h-98.81a31.66 31.66 0 00-27.36 15.8l-44.85 77.68-19.9-34.47a20 20 0 010-19.92l42.47-73.56a19.92 19.92 0 0117.25-10h84.93a20 20 0 0117.26 10h12.71l-1.31-2.94a30.68 30.68 0 00-28.66-18.69h-84.93a31.69 31.69 0 00-27.36 15.8l-42.49 73.71a31.62 31.62 0 000 31.6l42.47 73.55a31.66 31.66 0 0027.36 15.8h41.87a17.23 17.23 0 0014.91-8.58l51.38-88.47h36.54a.73.73 0 01.63 1.09l-23.8 40.73h13.5l20.35-34.92a12.23 12.23 0 00.07-12.39z" fill="#fff"/><path d="M1238.92 365.39a12.25 12.25 0 00-10.75-6.22h-81.39a31.68 31.68 0 00-27.36 15.8l-21.8 37.76h13.47l18.43-31.93a20 20 0 0117.26-10h31.35l-48 82.61a5.56 5.56 0 01-4.82 2.77h-41.87a19.92 19.92 0 01-17.25-10l-15.83-27.42 48.21-83.51a20 20 0 0117.26-10h104l-5.14-11.67h-98.81a31.69 31.69 0 00-27.36 15.8l-44.85 77.68-19.9-34.46a20 20 0 010-19.93l42.47-73.55a19.9 19.9 0 0117.25-10h84.93a20 20 0 0117.26 10h12.71l-1.31-2.94a31.18 31.18 0 00-4.94-8 31.69 31.69 0 00-23.72-10.72h-84.93a31.68 31.68 0 00-27.36 15.79L1013.64 347a31.6 31.6 0 000 31.59l42.47 73.55a31.66 31.66 0 0027.36 15.8h41.87a17.23 17.23 0 0014.91-8.58l51.38-88.47h36.54a.73.73 0 01.63 1.09L1205 412.7h13.5l20.35-34.92a12.25 12.25 0 00.07-12.39z" fill="#e6e7e8"/><path d="M416.94 902.3h-.62v-3.77h-1.43V898h3.47v.55h-1.42zm6.55 0v-3.67l-1.65 3.67h-.56l-1.63-3.64v3.64H419V898h1l1.57 3.52 1.59-3.52h1v4.32z" fill="#231f20"/><path d="M537.83 974.45a7.71 7.71 0 006.65-3.83h4.89l-.5 1.13a12.34 12.34 0 01-1.91 3.07 12.2 12.2 0 01-9.13 4.13H535zm-46.08-13.27l-3.89-2.24 19.21-33.28a12.2 12.2 0 0110.54-6.08h38l2 4.49h-40a7.69 7.69 0 00-6.65 3.84z" fill="#d1d3d4"/><path d="M557.13 957.71h-5.19l9.15-15.7a.26.26 0 000-.28.26.26 0 00-.24-.14h-31.34a7.69 7.69 0 00-6.64 3.83l-7.1 12.3h-5.19l8.42-14.55a12.22 12.22 0 0110.54-6.08h31.34a4.76 4.76 0 014.12 7.17z" fill="#d1d3d4"/><path d="M548.87 905.17a11.88 11.88 0 00-11-7.19h-32.73a12.2 12.2 0 00-10.54 6.08l-16.35 28.32a12.17 12.17 0 000 12.16l16.35 28.32a12.19 12.19 0 0010.54 6.14h16.12a6.64 6.64 0 005.74-3.31l20.43-35.18-3.89-2.26-20.43 35.19a2.13 2.13 0 01-1.85 1.06h-16.13a7.67 7.67 0 01-6.64-3.83l-16.35-28.37a7.72 7.72 0 010-7.67l16.35-28.32a7.66 7.66 0 016.64-3.84h32.7a7.69 7.69 0 016.65 3.84h4.89z" fill="#d1d3d4"/><path d="M567.68 902.3h-.63v-3.77h-1.42V898h3.47v.55h-1.42zm6.55 0v-3.67l-1.66 3.67H572l-1.63-3.64v3.64h-.6V898h.94l1.58 3.52 1.59-3.52h1v4.32z" fill="#231f20"/></svg>