<svg xmlns="http://www.w3.org/2000/svg" xmlns:xlink="http://www.w3.org/1999/xlink" viewBox="184.9 938.929 76.738 85.02" width="72.74" height="81.02"><defs><path d="M258.15 947.12c-.48-1.11-1.12-2.14-1.9-3.06a12.223 12.223 0 00-9.13-4.13h-32.7c-4.35 0-8.36 2.32-10.54 6.08-1.64 2.83-14.72 25.49-16.35 28.32a12.17 12.17 0 000 12.16c1.63 2.83 14.71 25.49 16.35 28.32 2.16 3.78 6.18 6.12 10.54 6.14h16.12c2.36 0 4.55-1.26 5.74-3.31 1.36-2.35 8.17-14.07 20.43-35.18l-3.89-2.26c-12.26 21.11-19.07 32.84-20.43 35.19-.38.66-1.09 1.06-1.85 1.06h-16.12c-2.74 0-5.28-1.46-6.65-3.83-1.64-2.84-14.72-25.53-16.35-28.37a7.72 7.72 0 010-7.67c1.63-2.83 14.71-25.49 16.35-28.32a7.66 7.66 0 016.65-3.84h32.7c2.74 0 5.27 1.47 6.64 3.84h4.88c-.26-.61-.43-.99-.49-1.14z" id="a"/></defs><use xlink:href="#a" fill="#231f20"/><use xlink:href="#a" fill-opacity="0" stroke="#000" stroke-opacity="0"/></svg>